<?xml version="1.0" encoding="iso-8859-1"?>
<!-- Generator: Adobe Illustrator 19.0.0, SVG Export Plug-In . SVG Version: 6.00 Build 0)  -->
<svg version="1.1" id="Capa_1" xmlns="http://www.w3.org/2000/svg" xmlns:xlink="http://www.w3.org/1999/xlink" x="0px" y="0px"
	 viewBox="0 0 512 512" style="enable-background:new 0 0 512 512;" xml:space="preserve">
<g>
	<path style="fill:#FFD173;" d="M197.642,122.61h37.516c11.513,0,20.842,9.329,20.842,20.842c0,11.513-9.329,20.842-20.842,20.842
		h-36.599v-35.432l-0.917-0.167V122.61z"/>
	<path style="fill:#FFD173;" d="M205.979,80.926h29.179c11.513,0,20.842,9.329,20.842,20.842s-9.329,20.842-20.842,20.842h-37.516
		V80.926H205.979z"/>
	<path style="fill:#FFD173;" d="M289.347,347.706v50.021l-21.009-7.003c-6.945-1.876-11.913-7.987-12.339-15.173v-0.083
		c0.15-7.662,3.727-14.856,9.754-19.592C272.424,350.482,280.769,347.597,289.347,347.706z"/>
	<path style="fill:#FFD173;" d="M205.979,164.295h29.179c11.513,0,20.842-9.329,20.842-20.842c0-11.513-9.329-20.842-20.842-20.842
		c11.513,0,20.842-9.329,20.842-20.842s-9.329-20.842-20.842-20.842h-37.516v47.77l-32.097-5.085l-42.768,4.502
		c-0.083-1.834-0.167-3.668-0.167-5.502c-0.025-41.659,25.786-78.967,64.777-93.623c11.263-4.268,23.218-6.444,35.265-6.419
		c55.248,0.025,100.026,44.827,100.001,100.084c-0.017,55.248-44.827,100.026-100.076,100.001
		c-37.432-0.017-71.722-20.926-88.879-54.19l-0.083-1.334l26.428-1.834h38.516v-1H205.979z"/>
	<path style="fill:#FFD173;" d="M378.302,443.579c-25.327,49.104-85.661,68.387-134.765,43.06s-68.387-85.661-43.06-134.765
		c17.157-33.264,51.447-54.173,88.879-54.19c12.047-0.025,24.002,2.151,35.265,6.419c38.992,14.656,64.802,51.964,64.777,93.623
		c0,1.834-0.083,3.668-0.167,5.502l-42.768-4.502l-33.014,5.252v36.432h38.516l26.428,1.834L378.302,443.579z M289.347,397.727
		v-50.021c-8.579-0.108-16.924,2.776-23.593,8.17c-6.028,4.735-9.604,11.93-9.754,19.592v0.083
		c0.425,7.186,5.394,13.297,12.339,15.173L289.347,397.727z"/>
</g>
<g>
	<path style="fill:#F5D0C7;" d="M187.388,28.987c-38.991,14.656-64.802,51.964-64.777,93.623c0,1.834,0.083,3.668,0.167,5.502
		l42.768-4.502l32.097,5.085v35.598h0.917v1h-38.516l-26.428,1.834l-50.688,3.418l-33.014,52.105H5.894V108.354l53.773-53.773
		l114.298-40.35l13.256,14.423L187.388,28.987z"/>
	<path style="fill:#F5D0C7;" d="M389.39,397.727c0.025-41.659-25.786-78.967-64.777-93.623l0.167-0.333l13.256-14.423l114.298,40.35
		l51.355,51.355l2.418,2.418v114.298h-44.019l-33.014-52.105l-50.688-3.418l-26.428-1.834h-38.516v-36.432l33.014-5.252
		l42.768,4.502C389.306,401.395,389.39,399.561,389.39,397.727z"/>
</g>
<path style="fill:#FE7C26;" d="M289.347,506.106c-59.859,0-108.379-48.521-108.379-108.379s48.521-108.379,108.379-108.379
	c13.064-0.033,26.028,2.326,38.241,6.97c42.143,15.998,70.038,56.332,70.138,101.41c0,1.951-0.083,3.902-0.175,5.836l-16.674-0.275
	c0.083-2.168,0.167-3.877,0.167-5.586c-0.075-38.141-23.693-72.281-59.358-85.811c-10.329-3.918-21.292-5.911-32.339-5.869
	c-50.646,0.025-91.689,41.092-91.664,91.747s41.092,91.689,91.747,91.664c34.315-0.017,65.753-19.183,81.476-49.688l14.806,7.67
	C367.13,483.505,329.931,506.164,289.347,506.106z"/>
<g>
	<path style="fill:#454545;" d="M169.297,463.78C85.386,428.89,30.763,346.88,30.905,256h16.674
		C47.437,340.136,98,416.076,175.683,448.39L169.297,463.78z"/>
	<path style="fill:#454545;" d="M481.095,256h-16.674C464.563,171.865,414,95.924,336.317,63.61l6.428-15.39
		C426.639,83.127,481.245,165.137,481.095,256z"/>
	<path style="fill:#454545;" d="M472.758,264.337c-1.801,0-3.56-0.584-5.002-1.667l-33.347-25.011l10.004-13.339l28.345,21.259
		l28.345-21.259l10.004,13.339l-33.347,25.011C476.318,263.753,474.559,264.337,472.758,264.337z"/>
	<path style="fill:#454545;" d="M67.587,287.68l-28.345-21.259L10.896,287.68L0.892,274.341l33.347-25.011
		c2.968-2.226,7.036-2.226,10.004,0l33.347,25.011L67.587,287.68z"/>
</g>
<g>
	<rect x="197.642" y="64.252" style="fill:#FE7C26;" width="16.674" height="16.674"/>
	<path style="fill:#FE7C26;" d="M222.653,230.99c-40.584,0.058-77.783-22.601-96.357-58.691l14.806-7.67
		c23.21,45.019,78.517,62.702,123.527,39.492s62.702-78.517,39.492-123.527c-15.723-30.505-47.162-49.671-81.476-49.688
		c-11.03-0.042-21.976,1.934-32.297,5.836c-35.698,13.522-59.342,47.695-59.408,85.87c0,1.667,0.083,3.418,0.158,5.119l-8.337,0.467
		h-8.337c-0.083-1.667-0.167-3.635-0.167-5.586c0.108-45.094,28.029-85.444,70.196-101.435c12.197-4.627,25.144-6.978,38.191-6.945
		c59.859,0,108.379,48.521,108.379,108.379S282.511,230.99,222.653,230.99z"/>
	<path style="fill:#FE7C26;" d="M235.158,130.947v-16.674c6.903,0,12.505-5.602,12.505-12.505c0-6.903-5.602-12.505-12.505-12.505
		h-29.179v33.347h-16.674V80.926c0-4.602,3.735-8.337,8.337-8.337h37.516c16.115,0,29.179,13.064,29.179,29.179
		S251.273,130.947,235.158,130.947z"/>
	<path style="fill:#FE7C26;" d="M235.158,172.631h-37.516c-4.602,0-8.337-3.735-8.337-8.337V122.61c0-4.602,3.735-8.337,8.337-8.337
		h37.516c16.115,0,29.179,13.064,29.179,29.179S251.273,172.631,235.158,172.631z M205.979,155.958h29.179
		c6.903,0,12.505-5.602,12.505-12.505c0-6.903-5.602-12.505-12.505-12.505h-29.179V155.958z"/>
	<rect x="180.968" y="72.589" style="fill:#FE7C26;" width="16.674" height="16.674"/>
	<rect x="230.989" y="64.252" style="fill:#FE7C26;" width="16.674" height="16.674"/>
	<rect x="230.989" y="164.295" style="fill:#FE7C26;" width="16.674" height="16.674"/>
	<rect x="197.642" y="164.295" style="fill:#FE7C26;" width="16.674" height="16.674"/>
	<path style="fill:#FE7C26;" d="M289.347,456.085c-10.529,0.108-20.767-3.46-28.937-10.104c-7.953-6.303-12.63-15.848-12.747-25.994
		h16.674c0.158,5.186,2.643,10.029,6.761,13.189c10.971,8.087,25.969,7.953,36.799-0.325c0.092-0.083,0.734-0.584,0.834-0.667
		l11.472,12.088c-0.559,0.542-1.159,1.042-1.792,1.492C310.265,452.567,299.96,456.226,289.347,456.085z"/>
	<path style="fill:#FE7C26;" d="M307.689,412.641l-42.009-14.006c-10.379-2.968-17.666-12.297-18.016-23.085
		c0.092-10.171,4.777-19.758,12.747-26.078c8.17-6.645,18.408-10.213,28.937-10.104c22.985,0,41.684,16.19,41.684,36.099h-16.674
		c0-10.713-11.221-19.425-25.011-19.425c-6.628-0.108-13.081,2.093-18.249,6.236c-4.118,3.16-6.603,8.003-6.761,13.189
		c0.459,3.61,3.118,6.544,6.669,7.353l41.984,13.998L307.689,412.641z"/>
	<rect x="281.011" y="331.032" style="fill:#FE7C26;" width="16.674" height="133.39"/>
</g>
<path d="M289.347,289.348c-59.859-0.033-108.404,48.47-108.438,108.321s48.471,108.404,108.321,108.438
	c39.142,0.017,75.249-21.067,94.465-55.157l40.559,2.743l30.763,48.537c1.526,2.418,4.185,3.877,7.045,3.877h44.035v-16.674h-39.45
	l-30.58-48.229c-1.426-2.251-3.835-3.685-6.486-3.86l-77.616-5.227h-30.188v-21.051l24.911-3.927l48.445,5.102
	c0.725,0.075,1.459,0.05,2.176-0.058l33.022-5.211l-2.601-16.44l-30.138,4.76c-0.925-39.859-23.66-75.99-59.192-94.073l2.009-2.176
	l107.329,37.883l52.472,52.464L512,377.593l-53.781-53.781c-0.884-0.875-1.943-1.551-3.118-1.967l-114.298-40.342
	c-3.143-1.109-6.653-0.242-8.912,2.218l-9.846,10.705C311.473,291.065,300.444,289.356,289.347,289.348z M380.861,394l-33.514-3.526
	c-0.725-0.075-1.459-0.058-2.176,0.058l-33.031,5.211c-0.4,0.108-0.784,0.242-1.159,0.409l-13.297-4.435v-34.481
	c9.02,1.667,15.832,9.121,16.674,18.258h16.674c-1.092-18.308-15.131-33.214-33.347-35.39v-9.071H281.01v9.071
	c-18.216,2.184-32.264,17.091-33.347,35.407c0.333,10.83,7.645,20.184,18.066,23.135l15.281,5.094v34.481
	c-9.02-1.667-15.832-9.121-16.674-18.258h-16.674c1.092,18.308,15.131,33.214,33.347,35.39v9.07h16.674v-9.095
	c5.944-1.034,11.613-3.26,16.674-6.536h37.066l13.439,0.909c-28.662,41.793-85.778,52.447-127.579,23.785
	c-41.793-28.662-52.447-85.778-23.785-127.579s85.778-52.447,127.579-23.785c23.852,16.357,38.6,43.002,39.792,71.897L380.861,394z
	 M305.112,411.766v23.193c-2.309,1.426-4.81,2.509-7.428,3.21v-28.871L305.112,411.766z M281.011,357.235v28.921l-10.004-3.335
	c-3.543-0.8-6.203-3.727-6.669-7.328C265.179,366.355,271.99,358.902,281.011,357.235z"/>
<path d="M64.252,61.81l107.312-37.883l2.009,2.176c-35.532,18.083-58.266,54.215-59.192,94.073l-30.121-4.76l-2.601,16.474
	l33.022,5.211c0.717,0.108,1.451,0.133,2.176,0.058l48.445-5.102l24.002,3.785v21.167h-29.846l-77.058,5.211
	c-2.651,0.175-5.06,1.609-6.486,3.86l-30.571,48.237H5.894v16.674h44.035c2.86,0,5.519-1.459,7.045-3.877l30.763-48.537l40.55-2.751
	c29.387,52.147,95.482,70.597,147.629,41.201s70.597-95.482,41.201-147.629C291.932,24.711,238.876,3.802,189.98,19.283
	l-9.846-10.696c-2.259-2.459-5.769-3.326-8.912-2.218L56.899,46.745c-1.175,0.417-2.234,1.092-3.118,1.968L0,102.46l11.788,11.813
	L64.252,61.81z M222.653,30.905c50.646-0.033,91.73,40.992,91.772,91.639c0.033,50.646-40.992,91.73-91.639,91.772
	c-30.229,0.025-58.525-14.856-75.64-39.767l12.88-0.875h37.624v7.295h16.674v-8.337h16.674v8.337h16.674v-11.263
	c14.506-6.82,20.734-24.11,13.914-38.608c-1.492-3.168-3.543-6.044-6.061-8.487c11.505-11.155,11.788-29.529,0.634-41.034
	c-2.443-2.518-5.311-4.569-8.487-6.061V64.252h-16.674v8.337h-16.674v-8.337H197.65v8.337h-16.674v16.674h8.337v29.704l-22.51-3.551
	c-0.717-0.1-1.451-0.125-2.176-0.058l-33.514,3.526C133.106,69.763,173.49,30.947,222.653,30.905z M235.158,114.273h-29.179V89.263
	h29.179c6.903,0,12.505,5.602,12.505,12.505C247.663,108.671,242.061,114.273,235.158,114.273z M247.663,143.452
	c0,6.903-5.602,12.505-12.505,12.505h-28.27v-25.011h28.27C242.061,130.947,247.663,136.55,247.663,143.452z"/>
<path d="M463.663,238.759l-19.25-14.439l-10.004,13.339l33.347,25.011c2.968,2.226,7.036,2.226,10.004,0l33.347-25.011
	l-10.004-13.339l-20.609,15.457c-5.978-84.786-59.308-158.926-137.792-191.556l-6.428,15.382
	C408.198,93.506,457.368,161.118,463.663,238.759z"/>
<path d="M77.591,274.341l-33.347-25.011c-2.968-2.226-7.036-2.226-10.004,0L0.892,274.341l10.004,13.339l20.609-15.457
	c5.978,84.786,59.308,158.926,137.792,191.556l6.428-15.382c-71.922-29.904-121.093-97.516-127.387-175.157l19.25,14.439
	L77.591,274.341z"/>
<g>
</g>
<g>
</g>
<g>
</g>
<g>
</g>
<g>
</g>
<g>
</g>
<g>
</g>
<g>
</g>
<g>
</g>
<g>
</g>
<g>
</g>
<g>
</g>
<g>
</g>
<g>
</g>
<g>
</g>
</svg>
