<?xml version="1.0" encoding="iso-8859-1"?>
<!-- Generator: Adobe Illustrator 19.0.0, SVG Export Plug-In . SVG Version: 6.00 Build 0)  -->
<svg version="1.1" id="Capa_1" xmlns="http://www.w3.org/2000/svg" xmlns:xlink="http://www.w3.org/1999/xlink" x="0px" y="0px"
	 viewBox="0 0 496 496" style="enable-background:new 0 0 496 496;" xml:space="preserve">
<path style="fill:#FFCB57;" d="M344,200c-22.368,0-43.464,5.248-62.352,14.352C290.752,195.464,296,174.368,296,152
	C296,72.472,231.528,8,152,8S8,72.472,8,152s64.472,144,144,144c22.368,0,43.464-5.248,62.352-14.352
	C205.248,300.536,200,321.632,200,344c0,79.528,64.472,144,144,144s144-64.472,144-144S423.528,200,344,200z"/>
<g>
	<polygon style="fill:#E56565;" points="408,152 408,120 328,120 328,104 424,104 424,120 466.664,88 424,56 424,72 328,72 328,56 
		408,56 408,24 493.336,88 	"/>
	<polygon style="fill:#E56565;" points="88,472 2.664,408 88,344 88,376 168,376 168,392 72,392 72,376 29.336,408 72,440 72,424 
		168,424 168,440 88,440 	"/>
</g>
<g>
	<path style="fill:#3F3A34;" d="M344,192c-40.608,0-77.464,16.104-104.76,42.144C259.488,212.648,272,183.792,272,152
		c0-28.784-10.432-56.664-29.376-78.512l-12.088,10.488C246.96,102.912,256,127.072,256,152c0,57.344-46.656,104-104,104
		c-24.928,0-49.088-9.04-68.024-25.464l-10.488,12.088C95.336,261.568,123.216,272,152,272c31.792,0,60.648-12.512,82.144-32.76
		C208.104,266.536,192,303.392,192,344c0,83.816,68.184,152,152,152s152-68.184,152-152S427.816,192,344,192z M344,480
		c-74.992,0-136-61.008-136-136s61.008-136,136-136s136,61.008,136,136S418.992,480,344,480z"/>
	<path style="fill:#3F3A34;" d="M400,312c0-19.312-13.768-35.472-32-39.192V256h-16v16h-32v-16h-16v16h-16v144h16v16h16v-16h32v16
		h16v-16.808c18.232-3.72,32-19.872,32-39.192c0-13.072-6.304-24.696-16.024-32C393.696,336.696,400,325.072,400,312z M384,376
		c0,13.232-10.768,24-24,24h-56v-48h56C373.232,352,384,362.768,384,376z M360,336h-56v-48h56c13.232,0,24,10.768,24,24
		S373.232,336,360,336z"/>
	<path style="fill:#3F3A34;" d="M344,240c24.936,0,49.088,9.04,68.024,25.472l10.488-12.088C400.664,234.432,372.784,224,344,224
		c-66.168,0-120,53.832-120,120c0,28.792,10.432,56.664,29.376,78.504l12.088-10.488C249.04,393.096,240,368.936,240,344
		C240,286.656,286.656,240,344,240z"/>
	<path style="fill:#3F3A34;" d="M434.624,265.496l-12.088,10.488C438.96,294.904,448,319.064,448,344c0,57.344-46.656,104-104,104
		c-24.936,0-49.088-9.048-68.024-25.472l-10.488,12.096C287.336,453.568,315.216,464,344,464c66.168,0,120-53.832,120-120
		C464,315.208,453.568,287.336,434.624,265.496z"/>
	<path style="fill:#3F3A34;" d="M208,128v-8c0-22.056-17.944-40-40-40h-8V64h-16v16h-8c-22.056,0-40,17.944-40,40s17.944,40,40,40
		h32c13.232,0,24,10.768,24,24s-10.768,24-24,24h-32c-13.232,0-24-10.768-24-24v-8H96v8c0,22.056,17.944,40,40,40h8v16h16v-16h8
		c22.056,0,40-17.944,40-40s-17.944-40-40-40h-32c-13.232,0-24-10.768-24-24s10.768-24,24-24h32c13.232,0,24,10.768,24,24v8H208z"/>
	<path style="fill:#3F3A34;" d="M230.512,61.376C208.664,42.432,180.784,32,152,32C85.832,32,32,85.832,32,152
		c0,28.784,10.432,56.664,29.376,78.512l12.088-10.488C57.04,201.088,48,176.928,48,152C48,94.656,94.656,48,152,48
		c24.928,0,49.088,9.04,68.024,25.464L230.512,61.376z"/>
	<path style="fill:#3F3A34;" d="M152,288c-74.992,0-136-61.008-136-136S77.008,16,152,16s136,61.008,136,136
		c0,9.92-1.192,20.152-3.544,30.424l15.592,3.568C302.672,174.552,304,163.12,304,152C304,68.184,235.816,0,152,0S0,68.184,0,152
		s68.184,152,152,152c11.088,0,22.52-1.328,33.992-3.944l-3.56-15.592C172.136,286.808,161.896,288,152,288z"/>
	<rect x="376" y="136" style="fill:#3F3A34;" width="16" height="16"/>
	<rect x="344" y="136" style="fill:#3F3A34;" width="16" height="16"/>
	<rect x="136" y="344" style="fill:#3F3A34;" width="16" height="16"/>
	<rect x="104" y="344" style="fill:#3F3A34;" width="16" height="16"/>
</g>
<g>
</g>
<g>
</g>
<g>
</g>
<g>
</g>
<g>
</g>
<g>
</g>
<g>
</g>
<g>
</g>
<g>
</g>
<g>
</g>
<g>
</g>
<g>
</g>
<g>
</g>
<g>
</g>
<g>
</g>
</svg>
