<?xml version="1.0" encoding="iso-8859-1"?>
<!-- Generator: Adobe Illustrator 19.0.0, SVG Export Plug-In . SVG Version: 6.00 Build 0)  -->
<svg version="1.1" id="Capa_1" xmlns="http://www.w3.org/2000/svg" xmlns:xlink="http://www.w3.org/1999/xlink" x="0px" y="0px"
	 viewBox="0 0 512.001 512.001" style="enable-background:new 0 0 512.001 512.001;" xml:space="preserve">
<path style="fill:#D3D3D3;" d="M443.73,8.538v364.538c-0.017,12.066-6.408,23.227-16.81,29.354L256,503.463L85.08,402.43
	c-10.393-6.118-16.785-17.28-16.81-29.354V8.538c28.8,15.693,61.072,23.901,93.865,23.893c32.793,0.009,65.066-8.2,93.865-23.893
	c28.799,15.693,61.072,23.901,93.865,23.893C382.658,32.448,414.94,24.231,443.73,8.538z M392.531,238.934
	c0-75.408-61.123-136.531-136.531-136.531s-136.531,61.123-136.531,136.531S180.592,375.465,256,375.465
	C331.365,375.371,392.437,314.299,392.531,238.934z"/>
<path style="fill:#FE7C26;" d="M256,102.403c75.408,0,136.531,61.123,136.531,136.531S331.408,375.465,256,375.465
	s-136.531-61.123-136.531-136.531C119.572,163.578,180.644,102.506,256,102.403z M358.399,238.934
	C358.236,182.547,312.388,136.971,256,137.133c-56.387,0.162-101.963,46.011-101.801,102.398
	c0.162,56.387,46.011,101.963,102.398,101.801c6.733-0.017,13.448-0.708,20.053-2.048
	C324.257,329.471,358.407,287.548,358.399,238.934z"/>
<g>
	<path style="fill:#FFD173;" d="M276.651,138.584c55.423,11.443,91.075,65.646,79.632,121.069
		c-8.269,40.063-39.577,71.363-79.632,79.632l-3.584-23.552v-25.6c14.14,0,25.6-11.46,25.6-25.6c0-14.14-11.46-25.6-25.6-25.6
		c14.14,0,25.6-11.46,25.6-25.6s-11.46-25.6-25.6-25.6v-25.6L276.651,138.584z"/>
	<path style="fill:#FFD173;" d="M273.067,187.735c14.14,0,25.6,11.46,25.6,25.6s-11.46,25.6-25.6,25.6h-42.666v-51.199H273.067z"/>
	<path style="fill:#FFD173;" d="M273.067,238.934c14.14,0,25.6,11.46,25.6,25.6c0,14.139-11.46,25.6-25.6,25.6h-42.666v-51.199
		H273.067z"/>
	<path style="fill:#FFD173;" d="M238.934,290.133h34.133v25.6l3.584,23.552c-55.423,11.255-109.472-24.55-120.728-79.973
		c-11.255-55.423,24.55-109.472,79.973-120.728c13.448-2.731,27.306-2.731,40.755,0l-3.584,23.552v25.6h-42.666v102.398H238.934z"/>
</g>
<g>
	<path style="fill:#FE7C26;" d="M273.067,247.467v-17.066c9.429,0,17.066-7.637,17.066-17.066s-7.637-17.066-17.066-17.066h-34.133
		v42.666h-17.066v-51.199c0-4.71,3.823-8.533,8.533-8.533h42.666c18.85,0,34.133,15.283,34.133,34.133
		S291.917,247.467,273.067,247.467z"/>
	<path style="fill:#FE7C26;" d="M273.067,298.667h-42.666c-4.71,0-8.533-3.823-8.533-8.533v-51.199c0-4.71,3.823-8.533,8.533-8.533
		h42.666c18.85,0,34.133,15.283,34.133,34.133C307.199,283.384,291.917,298.667,273.067,298.667z M238.934,281.6h34.133
		c9.429,0,17.066-7.637,17.066-17.066c0-9.429-7.637-17.066-17.066-17.066h-34.133V281.6z"/>
	<rect x="230.401" y="162.136" style="fill:#FE7C26;" width="17.066" height="25.6"/>
	<rect x="230.401" y="290.133" style="fill:#FE7C26;" width="17.066" height="25.6"/>
	<rect x="264.533" y="162.136" style="fill:#FE7C26;" width="17.066" height="25.6"/>
	<rect x="264.533" y="290.133" style="fill:#FE7C26;" width="17.066" height="25.6"/>
	<rect x="213.334" y="179.202" style="fill:#FE7C26;" width="17.066" height="17.066"/>
	<rect x="213.334" y="281.6" style="fill:#FE7C26;" width="17.066" height="17.066"/>
</g>
<path style="fill:#454545;" d="M256,511.996c-1.527,0-3.029-0.41-4.343-1.186L80.737,409.777c-12.97-7.68-20.949-21.623-21-36.701
	V8.538c0-4.71,3.823-8.533,8.533-8.533c1.425,0,2.833,0.358,4.087,1.041c27.554,14.984,58.418,22.843,89.778,22.852
	c31.359-0.009,62.224-7.868,89.778-22.852c2.551-1.391,5.623-1.391,8.175,0c27.554,14.984,58.418,22.843,89.778,22.852
	c31.359-0.009,62.224-7.868,89.778-22.852c4.139-2.261,9.318-0.734,11.58,3.405c0.683,1.254,1.041,2.662,1.041,4.087v364.538
	c-0.051,15.078-8.03,29.013-21.009,36.693L260.344,510.81C259.03,511.587,257.528,511.996,256,511.996z M76.803,22.353v350.714
	c0.026,9.054,4.821,17.425,12.621,22.024L256,493.548l166.576-98.456c7.791-4.599,12.586-12.962,12.621-22.016V22.353
	c-57.3,25.728-123.151,24.2-179.197-4.156C199.963,46.571,134.104,48.098,76.803,22.353z"/>
<path d="M230.401,315.733h17.066v-17.066h17.066v17.066H281.6v-18.278c18.133-4.557,29.141-22.963,24.576-41.096
	c-1.707-6.784-5.47-12.868-10.769-17.425c14.182-12.185,15.803-33.561,3.618-47.752c-4.557-5.308-10.641-9.071-17.425-10.769
	v-18.278h-17.066v17.066h-17.066v-17.066h-17.066v17.066h-17.066v17.066h8.533V281.6h-8.533v17.066h17.066V315.733z
	 M238.934,196.268h34.133c9.429,0,17.066,7.637,17.066,17.066s-7.637,17.066-17.066,17.066h-34.133V196.268z M238.934,247.467
	h34.133c9.429,0,17.066,7.637,17.066,17.066c0,9.429-7.637,17.066-17.066,17.066h-34.133V247.467z"/>
<path d="M256,383.998c80.118,0,145.064-64.946,145.064-145.064S336.118,93.87,256,93.87s-145.064,64.946-145.064,145.064
	C111.03,319.018,175.925,383.913,256,383.998z M256,110.936c70.689,0,127.998,57.309,127.998,127.998S326.689,366.932,256,366.932
	s-127.998-57.309-127.998-127.998C128.088,168.279,185.345,111.022,256,110.936z"/>
<path d="M182.043,321.612c45.661,40.848,115.795,36.94,156.635-8.721s36.94-115.795-8.721-156.635s-115.795-36.94-156.635,8.721
	c-18.193,20.343-28.253,46.668-28.253,73.957C145.043,270.507,158.5,300.587,182.043,321.612z M193.426,168.962
	c38.638-34.559,97.978-31.249,132.537,7.39s31.249,97.978-7.39,132.538s-97.978,31.249-132.538-7.39
	c-15.385-17.203-23.901-39.475-23.901-62.565C162.118,212.217,173.501,186.762,193.426,168.962z"/>
<path d="M80.694,409.786L251.657,510.81c2.679,1.587,6.007,1.587,8.687,0l170.962-101.024c12.962-7.705,20.923-21.657,20.958-36.735
	V8.538c0-4.71-3.823-8.533-8.533-8.533c-1.425,0-2.833,0.358-4.087,1.041c-55.927,30.668-123.629,30.668-179.555,0
	c-2.551-1.391-5.623-1.391-8.175,0c-55.927,30.668-123.629,30.668-179.555,0c-4.13-2.253-9.318-0.734-11.58,3.405
	c-0.683,1.254-1.041,2.662-1.041,4.087V373.05C59.78,388.137,67.733,402.08,80.694,409.786z M76.803,22.37
	C133.967,48.764,200.125,47.228,256,18.198c55.875,29.03,122.033,30.566,179.197,4.173v350.714
	c-0.034,9.037-4.804,17.391-12.578,22.007L256,493.548L89.381,395.092c-7.782-4.616-12.561-12.988-12.578-22.041V22.37z"/>
<g>
</g>
<g>
</g>
<g>
</g>
<g>
</g>
<g>
</g>
<g>
</g>
<g>
</g>
<g>
</g>
<g>
</g>
<g>
</g>
<g>
</g>
<g>
</g>
<g>
</g>
<g>
</g>
<g>
</g>
</svg>
