<?xml version="1.0" encoding="iso-8859-1"?>
<!-- Generator: Adobe Illustrator 19.0.0, SVG Export Plug-In . SVG Version: 6.00 Build 0)  -->
<svg version="1.1" id="Capa_1" xmlns="http://www.w3.org/2000/svg" xmlns:xlink="http://www.w3.org/1999/xlink" x="0px" y="0px"
	 viewBox="0 0 512 512" style="enable-background:new 0 0 512 512;" xml:space="preserve">
<rect x="7.5" y="100" style="fill:#F1EBE0;" width="497" height="340"/>
<rect x="474.5" y="100" style="fill:#E8E1D7;" width="30" height="340"/>
<rect x="7.5" y="40" style="fill:#7A666C;" width="497" height="60"/>
<g>
	<rect x="142" y="154.89" style="fill:#BEC950;" width="310" height="80"/>
	<rect x="142" y="285" style="fill:#BEC950;" width="310" height="80"/>
</g>
<circle style="fill:#0087D5;" cx="70" cy="165" r="19"/>
<path style="fill:#006ECB;" d="M98,240H42v-28c0-15.464,12.536-28,28-28l0,0c15.464,0,28,12.536,28,28V240z"/>
<rect x="444.5" y="40" style="fill:#FF993B;" width="60" height="60"/>
<rect x="474.5" y="40" style="fill:#FF7B48;" width="30" height="60"/>
<circle style="fill:#0087D5;" cx="70" cy="297" r="19"/>
<path style="fill:#006ECB;" d="M98,372H42v-28c0-15.464,12.536-28,28-28l0,0c15.464,0,28,12.536,28,28V372z"/>
<path style="fill:#58C357;" d="M336,472H176c-11.046,0-20-8.954-20-20v-30c0-11.046,8.954-20,20-20h160c11.046,0,20,8.954,20,20v30
	C356,463.046,347.046,472,336,472z"/>
<path d="M142,242.387h310c4.142,0,7.5-3.358,7.5-7.5v-80c0-4.142-3.358-7.5-7.5-7.5H142c-4.142,0-7.5,3.358-7.5,7.5v80
	C134.5,239.029,137.858,242.387,142,242.387z M149.5,162.387h295v65h-295V162.387z"/>
<path d="M134.5,365c0,4.142,3.358,7.5,7.5,7.5h310c4.142,0,7.5-3.358,7.5-7.5v-80c0-4.142-3.358-7.5-7.5-7.5H142
	c-4.142,0-7.5,3.358-7.5,7.5V365z M149.5,292.5h295v65h-295V292.5z"/>
<path d="M504.5,392.25c-4.142,0-7.5,3.358-7.5,7.5v32.75H363.5V422c0-15.164-12.336-27.5-27.5-27.5H176
	c-15.164,0-27.5,12.336-27.5,27.5v10.5H15V176c0-4.142-3.358-7.5-7.5-7.5S0,171.858,0,176v264c0,4.142,3.358,7.5,7.5,7.5h141v4.5
	c0,15.164,12.336,27.5,27.5,27.5h160c15.164,0,27.5-12.336,27.5-27.5v-4.5h141c4.142,0,7.5-3.358,7.5-7.5v-40.25
	C512,395.608,508.642,392.25,504.5,392.25z M348.5,452c0,6.893-5.607,12.5-12.5,12.5H176c-6.893,0-12.5-5.607-12.5-12.5v-30
	c0-6.893,5.607-12.5,12.5-12.5h160c6.893,0,12.5,5.607,12.5,12.5V452z"/>
<path d="M504.5,32.5h-88.25l0,0c-4.142,0-7.5,3.358-7.5,7.5s3.358,7.5,7.5,7.5H437v45H15v-45h368.875c4.142,0,7.5-3.358,7.5-7.5
	s-3.358-7.5-7.5-7.5H7.5C3.358,32.5,0,35.858,0,40v103.5l0,0c0,4.142,3.358,7.5,7.5,7.5s7.5-3.358,7.5-7.5v-36h482l0,0v260
	c0,4.142,3.358,7.5,7.5,7.5s7.5-3.358,7.5-7.5V100V40C512,35.858,508.642,32.5,504.5,32.5z M452,92.5v-45h45v45H452z"/>
<path d="M34.5,212v28c0,4.142,3.358,7.5,7.5,7.5h56c4.142,0,7.5-3.358,7.5-7.5v-28c0-12.24-6.227-23.053-15.679-29.438
	c4.151-4.68,6.679-10.83,6.679-17.563c0-14.612-11.888-26.5-26.5-26.5S43.5,150.388,43.5,165c0,6.733,2.528,12.883,6.679,17.563
	C40.727,188.947,34.5,199.76,34.5,212z M58.5,165c0-6.341,5.159-11.5,11.5-11.5s11.5,5.159,11.5,11.5s-5.159,11.5-11.5,11.5
	S58.5,171.341,58.5,165z M49.5,212c0-11.304,9.196-20.5,20.5-20.5s20.5,9.196,20.5,20.5v20.5h-41V212z"/>
<path d="M34.5,372c0,4.142,3.358,7.5,7.5,7.5h56c4.142,0,7.5-3.358,7.5-7.5v-28c0-12.24-6.227-23.053-15.679-29.438
	c4.151-4.68,6.679-10.83,6.679-17.563c0-14.612-11.888-26.5-26.5-26.5S43.5,282.388,43.5,297c0,6.733,2.528,12.883,6.679,17.563
	C40.727,320.947,34.5,331.76,34.5,344V372z M58.5,297c0-6.341,5.159-11.5,11.5-11.5s11.5,5.159,11.5,11.5s-5.159,11.5-11.5,11.5
	S58.5,303.341,58.5,297z M49.5,344c0-11.304,9.196-20.5,20.5-20.5s20.5,9.196,20.5,20.5v20.5h-41V344z"/>
<path d="M488.303,56.697c-2.929-2.929-7.678-2.929-10.606,0L475,59.394l-2.697-2.697c-2.929-2.929-7.678-2.929-10.606,0
	c-2.929,2.929-2.929,7.678,0,10.606L464.394,70l-2.697,2.697c-2.929,2.929-2.929,7.678,0,10.606
	c1.464,1.464,3.384,2.197,5.303,2.197s3.839-0.732,5.303-2.197L475,80.606l2.697,2.697c1.464,1.464,3.384,2.197,5.303,2.197
	s3.839-0.732,5.303-2.197c2.929-2.929,2.929-7.678,0-10.606L485.606,70l2.697-2.697C491.232,64.375,491.232,59.625,488.303,56.697z"
	/>
<g>
</g>
<g>
</g>
<g>
</g>
<g>
</g>
<g>
</g>
<g>
</g>
<g>
</g>
<g>
</g>
<g>
</g>
<g>
</g>
<g>
</g>
<g>
</g>
<g>
</g>
<g>
</g>
<g>
</g>
</svg>
