<?xml version="1.0" encoding="iso-8859-1"?>
<!-- Generator: Adobe Illustrator 19.0.0, SVG Export Plug-In . SVG Version: 6.00 Build 0)  -->
<svg version="1.1" id="Layer_1" xmlns="http://www.w3.org/2000/svg" xmlns:xlink="http://www.w3.org/1999/xlink" x="0px" y="0px"
	 viewBox="0 0 300.16 300.16" style="enable-background:new 0 0 300.16 300.16;" xml:space="preserve">
<g>
	<g>
		<path style="fill:#F9BA48;" d="M135.556,48.403L82.302,33.899L69.216,44.782c-4.11-6.163-6.279-13.333-6.279-20.735V12.113
			c0-6.676,5.427-12.103,12.103-12.103c6.676,0,12.103,5.427,12.103,12.103v4.841c0,1.331,1.089,2.421,2.421,2.421
			s2.421-1.089,2.421-2.421v-4.841c0-6.676,5.427-12.103,12.103-12.103s12.103,5.427,12.103,12.103v4.841
			c0,1.331,1.089,2.421,2.421,2.421s2.421-1.089,2.421-2.421v-4.841c0-6.676,5.427-12.103,12.103-12.103
			c6.676,0,12.103,5.427,12.103,12.103v11.934c0,7.402-2.169,14.577-6.279,20.735L135.556,48.403z"/>
		<path style="fill:#333333;" d="M59.238,121.022l-9.683-4.841H33.889V43.562H0v91.984h33.889v-9.683H47.27l9.683,4.841h5.984
			v-9.683L59.238,121.022L59.238,121.022z M24.206,125.864H9.683v-72.62h14.524v72.62H24.206z"/>
		<path style="fill:#F9BA48;" d="M106.542,227.55c-0.876,0-1.748-0.015-2.629-0.053c-32.679-1.317-59.746-29.014-60.332-61.736
			c-0.305-16.877,6.013-32.838,17.782-44.937c10.38-10.675,16.097-23.993,16.097-37.491l24.206-15.545l9.683,9.683v48.393h33.889
			l5.669-5.829c11.958,11.89,18.537,27.716,18.537,44.579c0,17.293-6.87,33.415-19.346,45.397
			C138.267,221.377,122.882,227.55,106.542,227.55z"/>
		<path style="fill:#333333;" d="M130.715,154.911v-2.401c0-9.344-7.601-16.964-16.945-16.964h-2.421v-9.683h-9.683v9.683h-2.421
			c-9.344,0-16.944,7.601-16.944,16.944c0,9.344,7.601,16.945,16.944,16.945h14.524c4.004,0,7.262,3.258,7.262,7.262
			s-3.258,7.262-7.262,7.262H99.246c-4.004,0-7.262-3.239-7.262-7.243v-2.44h-9.683v2.44c0,9.344,7.601,16.925,16.944,16.925h2.421
			v9.683h9.683v-9.683h2.421c9.344,0,16.945-7.601,16.945-16.944c0-9.344-7.601-16.945-16.945-16.945H99.246
			c-4.004,0-7.262-3.258-7.262-7.262s3.258-7.262,7.262-7.262h14.524c4.004,0,7.262,3.278,7.262,7.281v2.401L130.715,154.911
			L130.715,154.911z"/>
		<path style="fill:#333333;" d="M151.145,67.788c2.324-2.576,3.776-5.96,3.776-9.692c0-8.007-6.516-14.534-14.524-14.534h-18.019
			l-3.37-4.212L81.174,28.53L51.502,53.244H29.048v9.683h25.959l28.428-23.679l29.943,8.559l10.186,12.728
			c1.346,1.685,1.941,3.796,1.67,5.935c-0.271,2.14-1.375,4.038-3.103,5.33c-3.123,2.343-7.562,2.028-10.331-0.736l-9.77-9.77
			L74.44,83.367l6.047,7.562l20.822-16.659l3.641,3.645c0.533,0.533,1.128,0.968,1.714,1.418c0.353,3.534,1.641,5.611,3.621,7.804
			c-2.324,2.576-3.776,5.955-3.776,9.687s1.457,7.112,3.776,9.683c-2.324,2.576-3.776,5.94-3.776,9.673
			c0,8.017,6.516,14.524,14.524,14.524h19.365c8.007,0,14.524-6.507,14.524-14.514c0-3.733-1.457-7.102-3.776-9.678
			c2.324-2.576,3.776-5.945,3.776-9.683c0-3.737-1.457-7.107-3.776-9.683c2.324-2.576,3.776-5.95,3.776-9.683
			C154.921,73.733,153.464,70.363,151.145,67.788z M140.397,121.022h-19.365c-2.668,0-4.841-2.174-4.841-4.841
			c0-2.668,2.174-4.841,4.841-4.841h19.365c2.668,0,4.841,2.174,4.841,4.841C145.239,118.849,143.065,121.022,140.397,121.022z
			 M140.397,101.657h-19.365c-2.668,0-4.841-2.174-4.841-4.841c0-2.668,2.174-4.841,4.841-4.841h19.365
			c2.668,0,4.841,2.174,4.841,4.841C145.239,99.484,143.065,101.657,140.397,101.657z M140.397,82.292H122.46
			c1.932-0.576,3.796-1.477,5.48-2.74c2.44-1.83,4.241-4.236,5.442-6.942h7.015c2.668,0,4.841,2.174,4.841,4.841
			S143.065,82.292,140.397,82.292z M140.397,62.927h-5.679c-0.445-3.05-1.612-5.955-3.597-8.438l-0.997-1.244h10.273
			c2.668,0,4.841,2.174,4.841,4.841C145.239,60.753,143.065,62.927,140.397,62.927z"/>
		<path style="fill:#333333;" d="M266.271,227.531v14.524h-32.422l-13.304-8.869l-40.802-14.471
			c-3.883-1.365-8.051-1.089-11.721,0.775c-3.675,1.864-6.352,5.059-7.548,9c-2.067,6.821,1.002,14.204,7.296,17.545l10.481,5.567
			l-15.24,0.048l-6.265-15.666c-2.062-5.132-6.967-8.453-12.505-8.453c-4.323,0-8.409,2.101-10.932,5.606
			c-2.522,3.515-3.205,8.056-1.825,12.152l1.467,4.347l-10.622-5.805c-3.379-1.854-7.417-2.212-11.072-0.978
			c-3.655,1.22-6.662,3.936-8.25,7.446c-3.108,6.865-0.247,14.858,6.512,18.194l23.897,11.793l49.604,10.089l64.365,0.092
			l18.886-3.776v13.459h33.889v-72.619L266.271,227.531L266.271,227.531z M141.172,238.787c1.627-2.266,5.548-1.786,6.579,0.799
			l4.841,12.098l-8.724,0.029l-3.205-9.518C140.271,241.028,140.455,239.789,141.172,238.787z M246.426,280.785h-61.978
			l-47.319-9.465l-23.325-11.508c-2.048-1.012-2.919-3.437-1.975-5.524c0.489-1.08,1.375-1.883,2.503-2.256
			c1.118-0.387,2.319-0.276,3.36,0.3l16.63,9.087h45.949l19.104-9.552l-27.058-14.383c-2.217-1.181-3.302-3.781-2.576-6.187
			c0.421-1.389,1.365-2.522,2.663-3.176c1.293-0.663,2.764-0.75,4.134-0.276l39.147,13.735l15.231,10.157h35.356v25.078
			L246.426,280.785z M290.477,290.467h-14.524v-53.254h14.524V290.467z"/>
	</g>
</g>
<g>
</g>
<g>
</g>
<g>
</g>
<g>
</g>
<g>
</g>
<g>
</g>
<g>
</g>
<g>
</g>
<g>
</g>
<g>
</g>
<g>
</g>
<g>
</g>
<g>
</g>
<g>
</g>
<g>
</g>
</svg>
