<?xml version="1.0" encoding="iso-8859-1"?>
<!-- Generator: Adobe Illustrator 19.0.0, SVG Export Plug-In . SVG Version: 6.00 Build 0)  -->
<svg version="1.1" id="Layer_1" xmlns="http://www.w3.org/2000/svg" xmlns:xlink="http://www.w3.org/1999/xlink" x="0px" y="0px"
	 viewBox="0 0 511.999 511.999" style="enable-background:new 0 0 511.999 511.999;" xml:space="preserve">
<circle style="fill:#FF9E16;" cx="255.998" cy="255.998" r="247.921"/>
<path style="opacity:0.2;enable-background:new    ;" d="M264.076,8.222c-2.683-0.086-5.373-0.145-8.077-0.145
	s-5.394,0.059-8.077,0.145v76.461h16.154V8.222z M84.687,247.919L8.221,247.92c-0.086,2.684-0.144,5.374-0.144,8.079
	c0,2.703,0.059,5.393,0.144,8.075l76.466-0.001V247.919z M75.084,425.491c3.683,3.929,7.492,7.739,11.422,11.422l54.068-54.068
	l-11.422-11.423L75.084,425.491z M436.913,86.505c-3.683-3.93-7.492-7.74-11.422-11.422l-54.066,54.069l11.423,11.422
	L436.913,86.505z M75.086,86.506l54.066,54.066l11.422-11.424L86.509,75.083C82.579,78.766,78.769,82.575,75.086,86.506z
	 M371.424,382.846l54.07,54.066c3.93-3.683,7.74-7.492,11.423-11.423l-54.07-54.068L371.424,382.846z M503.778,247.918
	l-76.467,0.002v16.154l76.467-0.002c0.086-2.682,0.144-5.37,0.144-8.073C503.923,253.295,503.864,250.604,503.778,247.918z
	 M247.921,427.311l0.002,76.467c2.683,0.086,5.372,0.145,8.076,0.145c2.704,0,5.394-0.059,8.078-0.145l-0.002-76.467H247.921z"/>
<circle style="fill:#333E48;" cx="255.998" cy="255.998" r="178.782"/>
<path style="fill:#FFFFFF;" d="M351.468,208.426c0-32.699-22.835-60.148-53.392-67.285v-8.807c0-11.896-9.643-21.539-21.539-21.539
	s-21.539,9.643-21.539,21.539v6.982h-15.186v-6.982c0-11.896-9.643-21.539-21.539-21.539c-11.896,0-21.539,9.643-21.539,21.539
	v6.982h-14.664c-11.896,0-21.539,9.643-21.539,21.539c0,11.699,9.333,21.198,20.957,21.51v147.261
	c-11.623,0.311-20.957,9.81-20.957,21.51c0,11.896,9.643,21.539,21.539,21.539h14.664v6.983c0,11.896,9.643,21.539,21.539,21.539
	c11.896,0,21.539-9.643,21.539-21.539v-6.983h15.186v6.983c0,11.896,9.643,21.539,21.539,21.539s21.539-9.643,21.539-21.539v-8.808
	c30.557-7.137,53.392-34.584,53.392-67.284c0-18.415-7.241-35.171-19.023-47.57C344.226,243.596,351.468,226.839,351.468,208.426z
	 M282.357,329.596h-57.792v-52.062h57.792c14.354,0,26.032,11.678,26.032,26.032C308.39,317.919,296.712,329.596,282.357,329.596z
	 M282.357,234.456h-57.792v-52.063h57.792c14.354,0,26.032,11.678,26.032,26.032C308.39,222.779,296.712,234.456,282.357,234.456z"
	/>
<path style="fill:#1E252B;" d="M437.019,74.979C388.667,26.628,324.379,0,255.999,0S123.333,26.628,74.981,74.979
	C26.628,123.332,0,187.619,0,255.999s26.628,132.667,74.981,181.019s112.64,74.981,181.019,74.981
	c68.38,0,132.667-26.629,181.019-74.981c48.352-48.352,74.981-112.64,74.981-181.019C512,187.619,485.372,123.332,437.019,74.979z
	 M425.596,425.595c-45.301,45.301-105.532,70.25-169.597,70.25s-124.296-24.948-169.597-70.25
	c-45.3-45.301-70.248-105.531-70.248-169.596s24.948-124.297,70.25-169.597c45.3-45.3,105.531-70.249,169.596-70.249
	c64.066,0,124.297,24.948,169.597,70.249s70.249,105.531,70.249,169.597C495.846,320.064,470.898,380.294,425.596,425.595z
	 M255.999,69.141c-103.033,0-186.857,83.824-186.857,186.858c0,103.031,83.823,186.854,186.857,186.854
	s186.857-83.822,186.857-186.854C442.856,152.966,359.033,69.141,255.999,69.141z M255.999,426.698
	c-94.125,0-170.703-76.576-170.703-170.7c0-94.126,76.577-170.704,170.703-170.704s170.703,76.577,170.703,170.704
	C426.702,350.123,350.126,426.698,255.999,426.698z"/>
<g>
</g>
<g>
</g>
<g>
</g>
<g>
</g>
<g>
</g>
<g>
</g>
<g>
</g>
<g>
</g>
<g>
</g>
<g>
</g>
<g>
</g>
<g>
</g>
<g>
</g>
<g>
</g>
<g>
</g>
</svg>
